<svg width="393.53126220703126" height="168.6935022665375" viewBox="0 0 350 150.0331268783078" class="css-1j8o68f"><defs id="SvgjsDefs1009"></defs><g id="SvgjsG1010" featurekey="ujU5uU-0" transform="matrix(8.278146681262607,0,0,8.278146681262607,3.476821744286773,-16.688738282413404)" fill="#111111"><path d="M-0.42 20 l0 -0.3 l0.4 0 c0.62 0 0.96 -0.3 1.3 -1.18 l4.52 -11.8 l0.54 0 l5.3 12.98 l0.98 0 l0 0.3 l-4.94 0 l0 -0.3 l1.4 0 l-1.78 -4.34 l-4.5 0 l-1.2 3.16 c-0.28 0.72 0.16 1.18 1.08 1.18 l0.6 0 l0 0.3 l-3.7 0 z M2.92 15.059999999999999 l4.26 0 l-2.2 -5.38 z M13.44 20.14 l-0.26 0 c0.2 -0.5 0.2 -1.62 0.2 -2.26 l0 -1.08 l0.3 0 l0 0.32 c0 1.58 1.12 2.72 3.08 2.72 c1.26 0 2.38 -0.46 2.38 -1.56 c0 -2.2 -5.84 -0.76 -5.84 -4.68 c0 -2.04 1.72 -2.74 3.28 -2.74 c0.98 0 1.78 0.3 2.32 0.76 c0.48 -0.08 0.7 -0.4 0.84 -0.76 l0.26 0 c-0.24 0.5 -0.28 1.22 -0.28 1.86 l0 1.02 l-0.3 0 l0 -0.32 c0 -1 -0.8 -2.26 -2.86 -2.26 c-1.24 0 -2.3 0.46 -2.3 1.52 c0 2.24 5.88 0.8 5.88 4.56 c0 1.66 -1.24 2.9 -3.38 2.9 c-1.1 0 -1.94 -0.32 -2.52 -0.86 c-0.42 0.1 -0.66 0.48 -0.8 0.86 z M27.12 18.5 l-0.04 0 c-0.4 0.78 -1.32 1.64 -2.78 1.64 c-1.3 0 -2.72 -0.58 -2.72 -2.24 c0 -2.16 2.74 -2.86 5.16 -2.86 l0.2 0 l0 -2.1 c0 -1.16 -0.34 -1.82 -1.56 -1.82 c-1.16 0 -1.7 0.5 -1.7 1.52 c0 0.66 0.26 1.22 0.94 1.1 l0 0.16 s-0.44 0.14 -0.92 0.14 c-0.94 0 -1.64 -0.46 -1.64 -1.3 c0 -1.12 1.16 -1.88 3.36 -1.88 c2.72 0 3.76 1 3.76 2.74 l0 5.18 c0 0.56 0.12 0.86 0.52 0.86 c0.62 0 0.88 -0.72 0.88 -1.38 l0.3 0 c0 1.28 -0.74 1.88 -1.8 1.88 c-1.12 0 -1.88 -0.6 -1.96 -1.64 z M26.94 17.9 l0 -2.56 l-0.26 0 c-0.92 0 -1.5 0.2 -1.92 0.48 c-0.58 0.4 -0.84 1.1 -0.84 2.08 c0 1.24 0.38 1.76 1.06 1.76 c0.34 0 0.68 -0.14 1.02 -0.36 c0.5 -0.36 0.94 -0.96 0.94 -1.4 z M38.32 20 l0 -1.92 l-0.04 0 c-0.42 1.2 -1.3 2.06 -2.92 2.06 c-2.52 0 -3.68 -1.72 -3.68 -4.5 c0 -3.02 1.52 -4.78 3.98 -4.78 c1.44 0 2.22 0.74 2.58 1.52 l0.04 0 l0 -6.44 l-1.34 0 l0 -0.3 l3.58 0 l0 14.06 l1.34 0 l0 0.3 l-3.54 0 z M38.28 16.5 l0 -2.54 c0 -1.32 -0.72 -2.68 -2.2 -2.68 c-1.46 0 -2.06 1.34 -2.06 4.4 c0 2.96 0.56 4.04 1.88 4.04 c1.4 0 2.38 -1.52 2.38 -3.22 z"></path></g></svg>